<?xml version="1.0" encoding="UTF-8" standalone="no"?>
<!-- Created with Inkscape (http://www.inkscape.org/) -->

<svg
   width="278.27023mm"
   height="269.0965mm"
   viewBox="0 0 278.27023 269.0965"
   version="1.1"
   id="svg1"
   inkscape:version="1.3.2 (091e20e, 2023-11-25, custom)"
   sodipodi:docname="ADS.svg"
   xml:space="preserve"
   xmlns:inkscape="http://www.inkscape.org/namespaces/inkscape"
   xmlns:sodipodi="http://sodipodi.sourceforge.net/DTD/sodipodi-0.dtd"
   xmlns:xlink="http://www.w3.org/1999/xlink"
   xmlns="http://www.w3.org/2000/svg"
   xmlns:svg="http://www.w3.org/2000/svg"><sodipodi:namedview
     id="namedview1"
     pagecolor="#ffffff"
     bordercolor="#000000"
     borderopacity="0"
     inkscape:showpageshadow="false"
     inkscape:pageopacity="0.0"
     inkscape:pagecheckerboard="false"
     inkscape:deskcolor="#ffffff"
     inkscape:document-units="mm"
     showborder="false"
     borderlayer="true"
     showgrid="false"
     showguides="true"
     inkscape:zoom="0.086524096"
     inkscape:cx="884.14677"
     inkscape:cy="-3600.1532"
     inkscape:window-width="1920"
     inkscape:window-height="991"
     inkscape:window-x="-9"
     inkscape:window-y="-9"
     inkscape:window-maximized="1"
     inkscape:current-layer="layer1"><inkscape:grid
       id="grid1"
       units="mm"
       originx="-189.8037"
       originy="362.62301"
       spacingx="0.99999998"
       spacingy="1"
       empcolor="#0099e5"
       empopacity="0.75686275"
       color="#0099e5"
       opacity="0"
       empspacing="5"
       dotted="false"
       gridanglex="30"
       gridanglez="30"
       visible="false" /></sodipodi:namedview><defs
     id="defs1"><linearGradient
       id="linearGradient279"
       inkscape:collect="always"><stop
         style="stop-color:#22118c;stop-opacity:1"
         offset="0"
         id="stop278" /><stop
         style="stop-color:#ffd42a;stop-opacity:1"
         offset="1"
         id="stop279" /></linearGradient><linearGradient
       id="linearGradient277"
       inkscape:collect="always"><stop
         style="stop-color:#941f6c;stop-opacity:1"
         offset="0"
         id="stop276" /><stop
         style="stop-color:#55001d;stop-opacity:1"
         offset="1"
         id="stop277" /></linearGradient><linearGradient
       id="linearGradient275"
       inkscape:collect="always"><stop
         style="stop-color:#800080;stop-opacity:1"
         offset="0"
         id="stop272" /><stop
         style="stop-color:#133a5b;stop-opacity:1"
         offset="0.20312449"
         id="stop273" /><stop
         style="stop-color:#941f6c;stop-opacity:1"
         offset="0.44130456"
         id="stop274" /><stop
         style="stop-color:#361a93;stop-opacity:1"
         offset="1"
         id="stop275" /></linearGradient><inkscape:path-effect
       effect="offset"
       id="path-effect258"
       is_visible="true"
       lpeversion="1.2"
       linejoin_type="miter"
       unit="mm"
       offset="-1.3"
       miter_limit="4"
       attempt_force_join="false"
       update_on_knot_move="true" /><inkscape:path-effect
       effect="offset"
       id="path-effect256"
       is_visible="true"
       lpeversion="1.2"
       linejoin_type="miter"
       unit="mm"
       offset="-1.3"
       miter_limit="4"
       attempt_force_join="false"
       update_on_knot_move="true" /><inkscape:path-effect
       effect="offset"
       id="path-effect254"
       is_visible="true"
       lpeversion="1.2"
       linejoin_type="miter"
       unit="mm"
       offset="0"
       miter_limit="4"
       attempt_force_join="false"
       update_on_knot_move="true" /><linearGradient
       id="linearGradient192"
       inkscape:collect="always"><stop
         style="stop-color:#ffd42a;stop-opacity:1"
         offset="0"
         id="stop191" /><stop
         style="stop-color:#4d2f87;stop-opacity:1"
         offset="1"
         id="stop192" /></linearGradient><linearGradient
       id="linearGradient143"
       inkscape:collect="always"><stop
         style="stop-color:#ffd42a;stop-opacity:1"
         offset="0"
         id="stop143" /><stop
         style="stop-color:#9d0057;stop-opacity:1"
         offset="1"
         id="stop144" /></linearGradient><linearGradient
       id="linearGradient141"
       inkscape:collect="always"><stop
         style="stop-color:#ffd42a;stop-opacity:1"
         offset="0"
         id="stop141" /><stop
         style="stop-color:#b80e47;stop-opacity:1"
         offset="1"
         id="stop142" /></linearGradient><linearGradient
       id="linearGradient139"
       inkscape:collect="always"><stop
         style="stop-color:#a2004f;stop-opacity:1"
         offset="0"
         id="stop139" /><stop
         style="stop-color:#361a93;stop-opacity:1"
         offset="1"
         id="stop140" /></linearGradient><linearGradient
       id="linearGradient136"
       inkscape:collect="always"><stop
         style="stop-color:#ffd42a;stop-opacity:1"
         offset="0"
         id="stop136" /><stop
         style="stop-color:#361a93;stop-opacity:1"
         offset="1"
         id="stop137" /></linearGradient><linearGradient
       id="linearGradient130"
       inkscape:collect="always"><stop
         style="stop-color:#ffd42a;stop-opacity:1"
         offset="0"
         id="stop130" /><stop
         style="stop-color:#da9233;stop-opacity:1"
         offset="0.54701209"
         id="stop132" /><stop
         style="stop-color:#941f6c;stop-opacity:1"
         offset="1"
         id="stop131" /></linearGradient><linearGradient
       id="linearGradient73"
       inkscape:collect="always"><stop
         style="stop-color:#361a93;stop-opacity:1;"
         offset="0"
         id="stop73" /><stop
         style="stop-color:#582b9f;stop-opacity:1"
         offset="0.57676184"
         id="stop75" /><stop
         style="stop-color:#800280;stop-opacity:1"
         offset="1"
         id="stop74" /></linearGradient><linearGradient
       id="linearGradient62"
       inkscape:collect="always"><stop
         style="stop-color:#691992;stop-opacity:1"
         offset="0"
         id="stop51" /><stop
         style="stop-color:#133a5b;stop-opacity:1"
         offset="0.26145008"
         id="stop61" /><stop
         style="stop-color:#361a93;stop-opacity:1"
         offset="1"
         id="stop62" /></linearGradient><linearGradient
       id="linearGradient70"
       inkscape:collect="always"><stop
         style="stop-color:#941f6c;stop-opacity:1"
         offset="0"
         id="stop70" /><stop
         style="stop-color:#d08035;stop-opacity:1"
         offset="0.32723677"
         id="stop72" /><stop
         style="stop-color:#ffd42a;stop-opacity:1"
         offset="1"
         id="stop71" /></linearGradient><linearGradient
       id="linearGradient52"
       inkscape:collect="always"><stop
         style="stop-color:#800080;stop-opacity:1"
         offset="0"
         id="stop52" /><stop
         style="stop-color:#aa0044;stop-opacity:1"
         offset="0.24920672"
         id="stop54" /><stop
         style="stop-color:#ff5555;stop-opacity:1"
         offset="1"
         id="stop53" /></linearGradient><clipPath
       clipPathUnits="userSpaceOnUse"
       id="clipPath94"><path
         style="fill:none;fill-opacity:1;stroke:#00ff00;stroke-width:0.0999998;stroke-dasharray:none"
         d="m 220.64903,-154.02294 -6.88031,0.57336 -4.39573,9.65154 2.77122,13.18726 14.04731,-0.86004 2.96235,-9.65154 z"
         id="path95" /></clipPath><clipPath
       clipPathUnits="userSpaceOnUse"
       id="clipPath129"><path
         style="opacity:1;fill:none;fill-opacity:1;stroke:#ff0000;stroke-width:0.264583"
         d="m 207.03759,-133.25004 82.43663,-0.81085 -11.89249,-22.43358 -30.27182,-4.86511 -12.70335,11.35193 -5.94625,11.62222 -23.51471,5.40568 z"
         id="path130" /></clipPath><linearGradient
       inkscape:collect="always"
       xlink:href="#linearGradient192"
       id="linearGradient258"
       gradientUnits="userSpaceOnUse"
       x1="259.13586"
       y1="-139.68678"
       x2="269.10223"
       y2="-153.96121" /><linearGradient
       inkscape:collect="always"
       xlink:href="#linearGradient277"
       id="linearGradient259"
       gradientUnits="userSpaceOnUse"
       x1="279.20343"
       y1="-104.32964"
       x2="275.79141"
       y2="-112.106" /><linearGradient
       inkscape:collect="always"
       xlink:href="#linearGradient141"
       id="linearGradient260"
       gradientUnits="userSpaceOnUse"
       gradientTransform="translate(70.273853,-102.70795)"
       x1="215.4164"
       y1="-154.0619"
       x2="242.98537"
       y2="-167.84641" /><linearGradient
       inkscape:collect="always"
       xlink:href="#linearGradient136"
       id="linearGradient261"
       gradientUnits="userSpaceOnUse"
       gradientTransform="translate(68.652153,-105.81621)"
       x1="247.85048"
       y1="-145.14253"
       x2="272.98691"
       y2="-164.3327" /><linearGradient
       inkscape:collect="always"
       xlink:href="#linearGradient143"
       id="linearGradient262"
       gradientUnits="userSpaceOnUse"
       gradientTransform="translate(70.273853,-102.70795)"
       x1="232.9749"
       y1="-151.74904"
       x2="261.06949"
       y2="-154.80695" /><linearGradient
       inkscape:collect="always"
       xlink:href="#linearGradient139"
       id="linearGradient263"
       gradientUnits="userSpaceOnUse"
       gradientTransform="translate(61.864593,-102.32571)"
       x1="255.41843"
       y1="-170.00867"
       x2="274.60861"
       y2="-168.92754" /><linearGradient
       inkscape:collect="always"
       xlink:href="#linearGradient130"
       id="linearGradient264"
       gradientUnits="userSpaceOnUse"
       x1="275.29745"
       y1="-143.67172"
       x2="244.77138"
       y2="-147.6291" /><linearGradient
       inkscape:collect="always"
       xlink:href="#linearGradient73"
       id="linearGradient265"
       gradientUnits="userSpaceOnUse"
       gradientTransform="translate(70.273853,-102.70795)"
       x1="309.61389"
       y1="-151.36679"
       x2="315.15637"
       y2="-89.061775" /><linearGradient
       inkscape:collect="always"
       xlink:href="#linearGradient62"
       id="linearGradient266"
       gradientUnits="userSpaceOnUse"
       x1="286.2308"
       y1="-149.06166"
       x2="280.9603"
       y2="-161.90015" /><linearGradient
       inkscape:collect="always"
       xlink:href="#linearGradient62"
       id="linearGradient267"
       gradientUnits="userSpaceOnUse"
       x1="286.2308"
       y1="-149.06166"
       x2="280.9603"
       y2="-161.90015" /><linearGradient
       inkscape:collect="always"
       xlink:href="#linearGradient62"
       id="linearGradient268"
       gradientUnits="userSpaceOnUse"
       x1="286.2308"
       y1="-149.06166"
       x2="280.9603"
       y2="-161.90015" /><linearGradient
       inkscape:collect="always"
       xlink:href="#linearGradient275"
       id="linearGradient269"
       gradientUnits="userSpaceOnUse"
       gradientTransform="translate(70.273853,-102.70795)"
       x1="229.72589"
       y1="-75.874512"
       x2="286.67953"
       y2="-150.79343" /><linearGradient
       inkscape:collect="always"
       xlink:href="#linearGradient279"
       id="linearGradient270"
       gradientUnits="userSpaceOnUse"
       gradientTransform="translate(70.273853,-102.70795)"
       x1="287.90451"
       y1="-127.05408"
       x2="292.32181"
       y2="-102.36646" /><linearGradient
       inkscape:collect="always"
       xlink:href="#linearGradient70"
       id="linearGradient271"
       gradientUnits="userSpaceOnUse"
       gradientTransform="translate(70.273853,-102.70795)"
       x1="231.02827"
       y1="-84.382446"
       x2="208.09579"
       y2="-114.699" /><linearGradient
       inkscape:collect="always"
       xlink:href="#linearGradient52"
       id="linearGradient272"
       gradientUnits="userSpaceOnUse"
       gradientTransform="translate(70.273853,-102.70795)"
       x1="269.74347"
       y1="-178.65776"
       x2="212.71356"
       y2="-170.81952" /><clipPath
       clipPathUnits="userSpaceOnUse"
       id="clipPath275"><path
         style="opacity:1;fill:none;fill-opacity:1;stroke:#782121;stroke-width:1.417;stroke-dasharray:none"
         d="m 277.16406,-114.58789 1.26172,2.11914 3.08789,10.16406 0.11524,0.96485 -13.33789,-5.94922 z"
         id="path276" /></clipPath><clipPath
       clipPathUnits="userSpaceOnUse"
       id="clipPath280"><rect
         style="opacity:1;fill:none;fill-opacity:1;stroke:#501616;stroke-width:0.0999998;stroke-dasharray:none"
         id="rect281"
         width="14.190637"
         height="13.903957"
         x="188.82625"
         y="-311.2384" /></clipPath></defs><g
     inkscape:label="Layer 1"
     inkscape:groupmode="layer"
     id="layer1"
     transform="translate(-189.8037,362.62301)"><rect
       style="display:inline;opacity:1;fill:#ffffff;fill-opacity:1;stroke:none;stroke-width:0.264583"
       id="rect7"
       width="278.27023"
       height="269.0965"
       x="189.8037"
       y="-362.62302"
       inkscape:export-filename="ADS_FINAL.svg"
       inkscape:export-xdpi="96"
       inkscape:export-ydpi="96" /><circle
       style="fill:#ffffff;stroke:none;stroke-width:0.116577;stroke-dasharray:none"
       id="circle233"
       cx="328.93881"
       cy="-228.07475"
       r="94.127388" /><text
       xml:space="preserve"
       style="font-size:7.51918px;fill:#ffd42a;fill-opacity:1;stroke:none;stroke-width:15.269;stroke-dasharray:none"
       id="text279"
       transform="matrix(1.0095036,0.16433549,-0.16433549,1.0095036,-40.681628,-50.820866)"><textPath
         xlink:href="#circle279"
         id="textPath279"
         style="font-style:normal;font-variant:normal;font-weight:bold;font-stretch:normal;font-size:7.51918px;font-family:sans-serif;-inkscape-font-specification:'sans-serif, Normal';font-variant-ligatures:normal;font-variant-caps:normal;font-variant-numeric:normal;font-variant-east-asian:normal;fill:#550000;stroke-width:15.269">MINDANAO STATE UNIVERSITY - GENERAL SANTOS CITY - <tspan
   style="font-weight:bold;font-size:7.51918px;fill:#000080"
   id="tspan280">ASSOCIATION OF DOST SCHOLARS</tspan></textPath></text><path
       d="m 330.32413,-287.70803 a 60,60 0 0 0 -49.07039,25.68526 c 23.62544,-18.04531 54.37489,-25.12166 86.83294,-12.30054 a 60,60 0 0 0 -37.76255,-13.38472 z"
       style="fill:url(#linearGradient272);fill-opacity:1;stroke:none;stroke-width:0.1"
       id="path233" /><path
       d="m 285.16358,-254.04703 c -3.54747,-0.0632 -7.32408,1.63859 -10.46138,6.24923 -3.964,5.8255 -4.35697,16.66456 -4.37855,20.08973 0.0167,14.66378 5.40301,28.81408 15.1412,39.77742 7.92197,2.11486 15.16941,3.60476 21.82606,4.51032 -2.0799,-1.0813 -4.08113,-2.30771 -5.98878,-3.67006 -0.20663,-0.14692 -0.41215,-0.29541 -0.6165,-0.44545 -23.18927,-17.08672 -28.91937,-44.88902 -23.75153,-57.45645 8.05423,45.39699 38.85385,66.55797 69.56992,60.52344 -64.54639,4.55917 -78.99283,-76.67017 -56.41723,-65.79702 -3.44485,0.18847 -6.1474,3.02667 -6.16707,6.47661 -5e-5,3.60289 2.92074,6.52369 6.52364,6.52363 3.60289,6e-5 6.52368,-2.92074 6.52363,-6.52363 -0.005,-0.52764 -0.0741,-1.05273 -0.20567,-1.56373 -0.0236,-0.0944 -0.0546,-0.18915 -0.0822,-0.2837 -0.0264,-0.0894 -0.0548,-0.17802 -0.0848,-0.26562 -1.32367,-4.01714 -6.11012,-8.05001 -11.43082,-8.14472 z"
       style="fill:url(#linearGradient271);stroke-width:0.0999998"
       id="path234"
       sodipodi:nodetypes="cscccccccccccccccc" /><path
       d="m 214.88973,-151.33908 c -3.54748,-0.0632 -7.32406,1.63857 -10.46138,6.24923 -3.96402,5.82553 -4.35697,16.66454 -4.37855,20.08973 0.0167,14.66386 5.40296,28.814026 15.1412,39.777415 7.92201,2.114869 15.16938,3.604757 21.82606,4.510319 -2.07991,-1.081307 -4.08112,-2.307696 -5.98878,-3.67006 -0.20663,-0.146917 -0.41214,-0.295405 -0.6165,-0.445451 -33.71144,-24.839843 -30.52585,-72.327533 -10.59884,-62.730023 -3.44487,0.18847 -6.1474,3.02665 -6.16707,6.47661 -5e-5,3.60291 2.92073,6.52369 6.52364,6.52363 3.60291,6e-5 6.52368,-2.92072 6.52363,-6.52363 -0.005,-0.52764 -0.0741,-1.05273 -0.20567,-1.56373 -0.0236,-0.0944 -0.0546,-0.18915 -0.0822,-0.2837 -0.0264,-0.0894 -0.0548,-0.17802 -0.0848,-0.26562 -1.32368,-4.01716 -6.11009,-8.05001 -11.43082,-8.14472 z"
       style="fill:#301891;fill-opacity:1;stroke-width:0.0999998"
       id="path236"
       sodipodi:nodetypes="cscccccccccccccc"
       inkscape:path-effect="#path-effect254"
       inkscape:original-d="m 214.88973,-151.33908 c -3.54748,-0.0632 -7.32406,1.63857 -10.46138,6.24923 -3.96402,5.82553 -4.35697,16.66454 -4.37855,20.08973 0.0167,14.66386 5.40296,28.814026 15.1412,39.777415 7.92201,2.114869 15.16938,3.604757 21.82606,4.510319 -2.07991,-1.081307 -4.08112,-2.307696 -5.98878,-3.67006 -0.20663,-0.146917 -0.41214,-0.295405 -0.6165,-0.445451 -33.71144,-24.839843 -30.52585,-72.327533 -10.59884,-62.730023 -3.44487,0.18847 -6.1474,3.02665 -6.16707,6.47661 -5e-5,3.60291 2.92073,6.52369 6.52364,6.52363 3.60291,6e-5 6.52368,-2.92072 6.52363,-6.52363 -0.005,-0.52764 -0.0741,-1.05273 -0.20567,-1.56373 -0.0236,-0.0944 -0.0546,-0.18915 -0.0822,-0.2837 -0.0264,-0.0894 -0.0548,-0.17802 -0.0848,-0.26562 -1.32368,-4.01716 -6.11009,-8.05001 -11.43082,-8.14472 z"
       transform="matrix(-1,0,0,1,588.23491,-102.36561)"
       clip-path="url(#clipPath94)" /><path
       d="m 355.1531,-271.50023 c -11.78856,20.35318 -7.19216,31.36808 -0.25218,41.03935 l -0.80822,15.79801 1.51929,2.5771 0.36173,-16.91008 c 1.30887,1.75096 2.66,3.47724 3.99253,5.21415 l -1.81953,19.11925 1.5198,2.57711 1.572,-20.01946 c 1.59312,2.14271 3.09347,4.3379 4.3527,6.66988 l -5.26841,17.64544 0.99064,2.82257 5.21725,-18.58595 c 2.31528,4.99339 3.41283,10.67848 1.86655,17.86713 l 1.60666,-1.43895 c 2.45144,-5.26223 0.64014,-11.77356 -3.06238,-17.89218 -0.008,-0.0135 -0.0166,-0.0273 -0.0248,-0.0408 -9.14235,-15.07973 -28.9082,-31.84753 -9.87124,-55.09121 z"
       style="fill:url(#linearGradient270);stroke-width:0.1"
       id="path237"
       sodipodi:nodetypes="ccccccccccccccccccc" /><path
       d="m 360.69592,-255.63763 c -21.82185,37.67585 -0.43397,38.44934 -1.37873,62.03394 -3.70837,-4.18681 -21.37199,-14.44871 -43.0997,-9.49038 4.71503,14.42439 24.20027,19.12632 37.97495,13.51442 -5.01967,0.0296 -25.43191,3.39516 -30.13664,-10.87873 -0.9716,-2.94781 35.15289,-3.54322 34.46402,13.48374 -19.51709,13.95004 -42.60625,9.44506 -67.72661,4.37235 25.50949,24.72835 73.75296,14.02204 84.62274,-24.35356 -1.28526,2.86474 -3.36334,6.1275 -5.16248,8.70076 -3.20712,4.0066 -6.54157,7.28846 -9.98854,9.98027 7.47422,-19.74453 -23.9826,-33.36179 2.13166,-65.24666 z"
       style="fill:url(#linearGradient269);fill-opacity:1;stroke-width:0.1"
       id="path238"
       sodipodi:nodetypes="ccccsccccccc" /><g
       id="g240"
       style="fill:url(#linearGradient268);fill-opacity:1"
       transform="translate(70.273853,-102.70795)"><path
         style="fill:url(#linearGradient266);fill-opacity:1;stroke:none;stroke-width:0.1;stroke-dasharray:none"
         d="m 279.48051,-155.17981 4.18938,17.7036 0.94602,-2.83798 -4.45971,-16.62247 z"
         id="path239" /><path
         style="fill:url(#linearGradient267);fill-opacity:1;stroke:none;stroke-width:0.1;stroke-dasharray:none"
         d="m 282.82511,-163.01572 4.18938,17.7036 0.94602,-2.83798 -4.45971,-16.62247 z"
         id="path240" /></g><path
       style="fill:#e3394f;fill-opacity:1;stroke:none;stroke-width:0.1;stroke-dasharray:none"
       d="m 354.00455,-189.60427 c -16.24882,3.99675 -17.34034,-1.51083 -23.92015,-8.71666 12.50068,-0.94917 19.16407,1.42488 23.92015,8.71666 z"
       id="path241"
       sodipodi:nodetypes="ccc" /><path
       style="fill:#361a93;fill-opacity:1;stroke:none;stroke-width:0.264583"
       d="m 360.61991,-255.49404 c 1.10109,-2.07322 2.61377,-3.75173 3.08154,-5.35121 1.54395,2.88908 -0.46407,6.67111 -1.39777,7.41245 z"
       id="path242"
       sodipodi:nodetypes="cccc" /><path
       d="m 332.39325,-277.49521 c 20.59353,0.8565 38.54699,14.27501 45.20034,33.78295 0.13902,0.41679 0.27253,0.83542 0.4005,1.25573 1.14463,3.70058 1.77647,7.73081 2.05672,11.89437 -0.83698,-1.04429 -1.77368,-2.03674 -2.77503,-3.00757 0.2629,-0.30361 0.43469,-0.67532 0.49558,-1.07229 0.15708,-1.16684 -0.66148,-2.24013 -1.82831,-2.39727 -0.10941,-0.0147 -0.21796,-0.021 -0.32505,-0.0191 -1.03514,0.0185 -1.93005,0.79032 -2.07222,1.84795 -0.15678,1.16666 0.6617,2.23961 1.82831,2.39676 0.31822,0.0308 0.63931,-0.0103 0.93948,-0.12041 1.54906,1.48339 2.85669,2.95864 3.86023,4.72478 0.0779,2.24349 0.0518,4.51298 -0.0481,6.78873 -0.73582,-1.10809 -1.57458,-2.17391 -2.4784,-3.22461 0.28926,-0.27847 0.494,-0.63297 0.59066,-1.02268 0.26198,-1.14787 -0.45617,-2.2908 -1.60404,-2.55281 -0.17938,-0.0409 -0.35854,-0.0581 -0.53433,-0.0532 -0.94928,0.0261 -1.79761,0.68909 -2.01848,1.65778 -0.26163,1.14786 0.45672,2.29052 1.60455,2.5523 0.31408,0.0592 0.63746,0.047 0.94619,-0.0357 1.38721,1.5926 2.54377,3.15552 3.38016,4.96869 -0.17416,2.62266 -0.44249,5.23348 -0.78186,7.79488 -1.26958,-5.91752 -4.72795,-9.61293 -9.124,-12.85968 0.23382,-0.3568 0.36208,-0.77239 0.37001,-1.1989 -3e-5,-1.25052 -1.01394,-2.2642 -2.26446,-2.26394 -1.25033,3e-5 -2.26392,1.01362 -2.26395,2.26394 3e-5,1.25032 1.01362,2.26392 2.26395,2.26395 0.33927,-0.0129 0.6713,-0.10189 0.97151,-0.26045 4.90345,3.57474 7.8617,7.31408 9.21184,17.49092 -1.38292,8.0662 -3.26163,15.26375 -4.63537,20.06906 8.90995,-9.60873 16.5116,-24.96388 16.56436,-38.22816 -0.0134,-39.91899 -32.79451,-53.36521 -57.93083,-53.43601 z m 43.30123,41.43209 c 0.0384,0.001 0.0769,0.005 0.11576,0.01 0.6223,0.0838 1.05887,0.65617 0.97513,1.27848 -0.0838,0.62229 -0.65617,1.05887 -1.27847,0.97513 -0.6223,-0.0838 -1.05887,-0.65617 -0.97514,-1.27847 0.0786,-0.58341 0.58677,-1.00371 1.16272,-0.98496 z m 0.4899,8.78396 c 0.0755,0.002 0.15186,0.0109 0.22841,0.0284 0.61218,0.13985 0.99509,0.7495 0.85524,1.36168 -0.13985,0.61193 -0.74915,0.99476 -1.36116,0.85524 -0.61214,-0.13961 -0.99525,-0.74899 -0.85576,-1.36115 0.12216,-0.53584 0.60443,-0.89614 1.13327,-0.88419 z m -7.97264,0.67696 c 0.66702,-1.1e-4 1.20779,0.54065 1.20767,1.20768 1.2e-4,0.66703 -0.54065,1.2078 -1.20767,1.20768 -0.66683,-1.7e-4 -1.20728,-0.54085 -1.20716,-1.20768 -1.2e-4,-0.66682 0.54033,-1.20751 1.20716,-1.20768 z"
       style="fill:url(#linearGradient265);fill-opacity:1;stroke-width:0.0188627"
       id="path243" /><path
       style="fill:url(#linearGradient264);fill-opacity:1;stroke-width:1.11823"
       d="m 263.53648,-96.308197 c -0.16513,-0.179929 -0.53176,-0.806592 -0.81473,-1.392605 -0.28296,-0.586005 -0.92735,-1.394175 -1.43196,-1.795942 -0.79979,-0.636786 -1.13835,-0.739616 -2.63958,-0.801696 -1.51118,-0.0625 -1.86908,0.0105 -2.92193,0.596136 -0.77747,0.432432 -1.45323,1.062296 -1.9197,1.789349 -1.14153,1.779154 -1.59994,1.862748 -4.4182,0.805621 -1.30678,-0.490176 -2.602,-1.049553 -2.87828,-1.243059 -0.59095,-0.413921 -0.64331,-1.199208 -0.14384,-2.156907 0.19715,-0.37802 0.35913,-0.96807 0.35994,-1.31122 9.1e-4,-0.53986 -0.207,-0.7125 -1.54626,-1.28169 -1.758,-0.74716 -4.21296,-2.32599 -6.08263,-3.91184 -1.36858,-1.16082 -1.55581,-1.70187 -0.24417,-0.70559 2.22025,1.68645 6.95239,3.49709 10.49252,4.01473 3.04951,0.4459 7.98641,0.18029 10.86612,-0.58461 5.65648,-1.50247 10.68532,-4.85704 13.79948,-9.20518 l 1.07413,-1.49977 h 2.95177 2.95176 l 0.16726,0.89157 c 0.255,1.35927 0.76397,2.16555 1.87445,2.96947 1.7646,1.27744 1.70826,1.64962 -0.72333,4.77761 -1.63262,2.10021 -2.20926,2.29519 -4.22423,1.42837 -0.98548,-0.42394 -1.52089,-0.50205 -2.75979,-0.4026 -2.05073,0.16461 -3.26945,0.99382 -4.20237,2.85928 -0.63889,1.27751 -0.66561,1.44584 -0.41503,2.614236 0.38791,1.808766 0.0646,2.187806 -2.55656,2.997 -2.61795,0.808206 -4.20397,0.997005 -4.61484,0.549337 z m -15.36703,-10.015783 c -2.62193,-0.5724 -5.31553,-1.70017 -7.55955,-3.16507 -1.7381,-1.13466 -4.16356,-3.38632 -5.16963,-4.79921 l -0.50143,-0.70421 h 2.98554 2.98555 l 1.05017,0.97761 c 3.1867,2.96649 7.00005,4.67368 11.72206,5.24782 5.07502,0.61706 10.77785,-0.91543 14.78287,-3.97252 1.56068,-1.1913 1.29122,-0.58278 -0.43867,0.99063 -2.75465,2.50545 -5.37491,3.98552 -8.93861,5.04902 -2.93164,0.87488 -7.85613,1.04443 -10.9183,0.37593 z m -24.47618,-11.1087 c 0,-0.28629 -0.32394,-1.09452 -0.71989,-1.79609 -0.79215,-1.40361 -0.82988,-1.5228 -0.48213,-1.5228 0.13077,0 0.48171,0.37661 0.77988,0.8369 0.29817,0.46029 0.6061,0.83823 0.68431,0.83987 0.0782,0.002 0.34572,-0.37497 0.59448,-0.8369 0.24877,-0.46193 0.58972,-0.83987 0.75768,-0.83987 0.41848,0 0.40327,0.0528 -0.41451,1.43977 -0.39594,0.67152 -0.71989,1.48614 -0.71989,1.81028 0,0.32415 -0.10798,0.58936 -0.23996,0.58936 -0.13198,0 -0.23997,-0.23424 -0.23997,-0.52052 z m 3.64127,-0.0349 c -0.71543,-0.76153 -0.68598,-1.94179 0.0673,-2.69501 1.46877,-1.46878 3.90155,0.0795 3.21581,2.04667 -0.30375,0.87135 -0.84149,1.20373 -1.94748,1.20373 -0.54041,0 -0.98911,-0.18659 -1.33558,-0.55539 z m 2.37256,-0.41922 c 0.62789,-0.6279 0.52094,-1.36614 -0.28475,-1.96534 -0.50936,-0.37882 -0.72647,-0.41682 -1.13432,-0.19854 -0.77443,0.41445 -1.06546,1.11766 -0.72787,1.7587 0.54492,1.03477 1.36296,1.18915 2.14694,0.40518 z m 3.24187,0.59752 c -0.25019,-0.25018 -0.37708,-0.81545 -0.37708,-1.67974 0,-0.71645 -0.008,-1.38094 -0.018,-1.47662 -0.01,-0.0957 0.0981,-0.21267 0.23997,-0.25996 0.1617,-0.0539 0.25796,0.37505 0.25796,1.1496 0,1.52836 0.31714,2.16388 1.07983,2.16388 0.76006,0 1.07983,-0.63487 1.07983,-2.14389 0,-0.66857 0.10799,-1.21559 0.23997,-1.21559 0.13509,0 0.23996,0.67419 0.23996,1.54263 0,1.79648 -0.33975,2.29678 -1.55976,2.29678 -0.44308,0 -0.97527,-0.16969 -1.18267,-0.37709 z m 4.9021,-1.54261 v -1.91971 h 1.07983 c 0.75988,0 1.22203,0.1422 1.55976,0.47993 0.58479,0.5848 0.5947,0.81148 0.074,1.69298 -0.3846,0.65107 -0.38265,0.71294 0.0372,1.17685 0.39076,0.43179 0.39686,0.48965 0.0515,0.48965 -0.21538,0 -0.57203,-0.27538 -0.79257,-0.61195 -0.50878,-0.7765 -1.41904,-0.72936 -1.39076,0.072 0.0105,0.29871 -0.12346,0.53992 -0.29996,0.53992 -0.23878,0 -0.319,-0.48277 -0.319,-1.9197 z m 2.12328,0.0276 c 0.17796,-0.11278 0.28446,-0.40808 0.23668,-0.65622 -0.13009,-0.67552 -1.75355,-0.64923 -1.77582,0.0288 -0.009,0.26395 0.0247,0.56092 0.0742,0.6599 0.12128,0.24274 1.06369,0.22187 1.46499,-0.0325 z m 6.12436,1.53777 c -0.0748,-0.19491 -0.0984,-0.89232 -0.0524,-1.54981 0.0764,-1.093 0.0366,-1.20142 -0.46385,-1.26538 -1.1481,-0.1467 -0.59452,-0.55263 0.84732,-0.62131 1.22448,-0.0583 1.49977,-0.004 1.49977,0.29995 0,0.23619 -0.21841,0.3714 -0.59991,0.3714 -0.57837,0 -0.59991,0.056 -0.59991,1.55976 0,1.46543 -0.30649,2.05095 -0.63097,1.20539 z m 2.79004,0.17439 c -3.2e-4,-0.099 0.34482,-0.96668 0.767,-1.92822 0.48141,-1.09645 0.89054,-1.7227 1.09737,-1.67974 0.43903,0.0912 2.00344,3.63683 1.66058,3.76358 -0.14227,0.0526 -0.41272,-0.13639 -0.60099,-0.41994 -0.44157,-0.66504 -1.58396,-0.68407 -2.13918,-0.0356 -0.41708,0.48713 -0.7837,0.62725 -0.78478,0.29996 z m 2.40022,-1.36849 c 0,-0.0598 -0.12801,-0.38965 -0.28447,-0.73304 -0.28447,-0.62434 -0.28447,-0.62434 -0.59141,-0.0713 -0.43744,0.78824 -0.39973,0.91301 0.27598,0.91301 0.32994,0 0.5999,-0.0489 0.5999,-0.10868 z m 3.13693,0.9162 c -0.67316,-0.85578 -0.63697,-1.88951 0.0916,-2.61813 0.6815,-0.6815 2.05468,-0.80242 2.53533,-0.22326 0.41138,0.49568 0.18711,0.6552 -0.5351,0.3806 -1.36269,-0.51808 -2.45805,1.08495 -1.4799,2.16579 0.64136,0.70869 1.62926,0.5104 1.72755,-0.34676 0.0978,-0.85267 0.59205,-0.72233 0.63096,0.16639 0.0344,0.7849 -0.44201,1.10764 -1.63493,1.10764 -0.61973,0 -0.96785,-0.16481 -1.33556,-0.63227 z m 5.0218,-1.30743 c 0,-1.34405 0.0839,-1.91173 0.27326,-1.84861 0.16282,0.0542 0.28405,0.71698 0.29995,1.63975 0.0267,1.54865 0.0267,1.54865 0.80657,1.62385 1.1727,0.11306 0.93738,0.52471 -0.29995,0.52471 h -1.07983 z m 3.8893,0.0992 c 0.046,-1.20635 0.17342,-1.87464 0.37003,-1.93969 0.22341,-0.0739 0.29995,0.39574 0.29995,1.84045 0,1.58771 -0.0671,1.9397 -0.37003,1.9397 -0.30734,0 -0.35816,-0.31186 -0.29995,-1.84046 z m 2.82965,-0.0793 c 0,-2.34193 0.23062,-2.42577 1.55975,-0.5671 l 0.95986,1.34225 0.0725,-1.36327 c 0.11073,-2.08387 0.6312,-1.59979 0.71753,0.66737 0.0628,1.64776 0.0242,1.84045 -0.36819,1.84045 -0.24106,0 -0.61878,-0.29695 -0.83939,-0.6599 -0.22062,-0.36294 -0.65931,-0.97596 -0.97487,-1.36225 l -0.57374,-0.70235 0.11297,1.36225 c 0.0948,1.14346 0.0504,1.36225 -0.2767,1.36225 -0.32709,0 -0.38966,-0.30822 -0.38966,-1.9197 z m 5.32907,0.06 0.0701,-1.85971 h 1.2598 c 1.51377,0 1.80572,0.4491 0.35995,0.55371 -0.82448,0.0597 -1.01984,0.16307 -1.01984,0.53991 0,0.38543 0.16964,0.46613 0.97984,0.46613 0.65394,0 0.94801,0.0955 0.88414,0.28715 -0.0527,0.15794 -0.46659,0.29292 -0.91986,0.29995 -0.66722,0.0103 -0.83875,0.1156 -0.90083,0.55272 -0.0699,0.49233 0.02,0.53992 1.01985,0.53992 0.60309,0 1.09652,0.10798 1.09652,0.23996 0,0.1335 -0.64326,0.23997 -1.44987,0.23997 h -1.44987 z m 7.38895,-0.06 c 0,-1.11983 0.1,-1.91971 0.23996,-1.91971 0.13198,0 0.23997,0.37795 0.23997,0.83988 0,0.83542 0.005,0.83987 1.07982,0.83987 1.07413,0 1.07984,-0.005 1.07984,-0.83987 0,-0.46193 0.10798,-0.83988 0.23996,-0.83988 0.13998,0 0.23996,0.79988 0.23996,1.91971 0,1.87496 -0.37524,2.69008 -0.52471,1.13982 -0.0414,-0.42893 -0.15618,-0.75288 -0.25516,-0.71989 -0.099,0.033 -0.55792,0.06 -1.01985,0.06 -0.77321,0 -0.83986,0.0571 -0.83986,0.71989 0,0.39593 -0.10799,0.71989 -0.23997,0.71989 -0.13998,0 -0.23996,-0.79988 -0.23996,-1.91971 z m 5.27917,-0.012 v -1.93168 l 1.32255,0.072 c 1.5755,0.0857 1.86565,0.52088 0.41718,0.62568 -0.82448,0.0597 -1.01984,0.16307 -1.01984,0.53991 0,0.37122 0.16812,0.46613 0.82571,0.46613 0.45413,0 0.89244,0.10798 0.97401,0.23996 0.0896,0.14492 -0.23747,0.23996 -0.82571,0.23996 -0.87896,0 -0.97401,0.0585 -0.97401,0.59991 0,0.55102 0.088,0.59991 1.07984,0.59991 0.5939,0 1.07982,0.10798 1.07982,0.23996 0,0.13331 -0.63989,0.23997 -1.43977,0.23997 h -1.43978 z m 4.65941,0.072 0.0199,-1.85971 1.11072,-0.0719 c 1.66579,-0.1079 2.42805,1.01472 1.59487,2.34886 -0.23195,0.37141 -0.23195,0.53267 0,0.76463 0.16166,0.16167 0.29394,0.38032 0.29394,0.48591 0,0.39306 -0.52036,0.17172 -1.05353,-0.44812 -0.62199,-0.72311 -1.3461,-0.641 -1.3461,0.15264 0,0.2681 -0.14391,0.48745 -0.31981,0.48745 -0.24064,0 -0.3149,-0.46039 -0.29996,-1.85971 z m 2.29697,-0.17692 c 0.48743,-0.58732 0.10768,-1.08289 -0.8298,-1.08289 -0.78158,0 -0.8474,0.0559 -0.8474,0.71988 0,0.6331 0.0833,0.71989 0.69051,0.71989 0.37977,0 0.82379,-0.16059 0.98669,-0.35688 z m 2.70387,0.17692 0.062,-1.85971 1.37791,-0.072 c 1.11548,-0.0582 1.37789,-9.1e-4 1.37789,0.29995 0,0.28082 -0.2645,0.37191 -1.07984,0.37191 -0.91985,0 -1.07982,0.0711 -1.07982,0.47993 0,0.39993 0.15997,0.47993 0.95984,0.47993 1.21455,0 1.26317,0.42584 0.06,0.52543 -0.72281,0.0599 -0.91494,0.1807 -0.97653,0.61439 -0.0699,0.49232 0.02,0.53991 1.01984,0.53991 0.60308,0 1.09652,0.10798 1.09652,0.23996 0,0.13332 -0.63995,0.23997 -1.43992,0.23997 h -1.43991 z m -78.18298,-4.6877 c -0.0651,-0.16962 -0.0887,-2.1943 -0.0525,-4.4993 l 0.0658,-4.19092 2.50834,-0.0689 c 2.614,-0.0718 3.50006,0.12362 4.23326,0.93381 0.59559,0.65811 0.53554,2.01267 -0.12015,2.71063 -0.52496,0.55879 -0.52678,0.57963 -0.0781,0.8979 1.58084,1.12131 1.26887,3.4231 -0.56797,4.19058 -1.07288,0.44828 -5.81889,0.46905 -5.98882,0.0262 z m 5.21371,-1.76849 c 0.54212,-0.49061 0.55064,-0.76132 0.0417,-1.32371 -0.30525,-0.33729 -0.74942,-0.43882 -1.9197,-0.43882 h -1.52256 v 1.07982 1.07984 h 1.48086 c 1.04122,0 1.61116,-0.1179 1.91971,-0.39713 z m -0.11836,-4.07428 c 0.54775,-0.828 -0.11609,-1.28769 -1.85958,-1.28769 h -1.42263 v 0.9713 0.97129 l 1.47173,-0.0715 c 1.18955,-0.0578 1.5367,-0.16962 1.81048,-0.58347 z m 3.91667,1.59186 v -4.5593 h 2.52916 c 2.0156,0 2.71154,0.0931 3.42727,0.45818 1.87263,0.95535 2.17235,3.46418 0.60882,5.09617 l -0.64308,0.67122 0.87831,1.32283 c 0.48307,0.72756 0.87831,1.38471 0.87831,1.46031 0,0.0756 -0.45497,0.10427 -1.01105,0.0637 -0.93975,-0.0686 -1.06245,-0.16235 -1.73973,-1.32939 -0.71622,-1.23414 -0.74816,-1.25568 -1.8685,-1.25981 l -1.13982,-0.005 v 1.3198 1.31979 h -0.95985 -0.95984 z m 5.27917,-0.23997 c 0.26396,-0.26396 0.47993,-0.74988 0.47993,-1.07983 0,-1.05595 -0.77509,-1.55975 -2.39963,-1.55975 h -1.43978 v 1.55975 1.55976 h 1.43978 c 1.11983,0 1.54643,-0.10665 1.9197,-0.47993 z m 2.91955,4.60112 c 0.044,-0.10897 0.94243,-2.16066 1.99654,-4.55929 l 1.91654,-4.36116 0.96301,0.004 0.96299,0.004 1.85971,4.28904 c 1.02285,2.35898 1.85971,4.40905 1.85971,4.55573 0,0.1494 -0.40612,0.26667 -0.92344,0.26667 -0.85455,0 -0.95159,-0.0717 -1.3005,-0.95984 l -0.37703,-0.95986 h -2.15292 -2.15291 l -0.38406,0.95986 c -0.36045,0.90084 -0.4444,0.95984 -1.36584,0.95984 -0.53999,0 -0.9458,-0.0892 -0.9018,-0.19814 z m 5.69053,-4.6611 c -0.27583,-0.6929 -0.57532,-1.45346 -0.66554,-1.69013 -0.12366,-0.32442 -0.34887,-0.0143 -0.91499,1.2598 l -0.75096,1.69013 h 1.4165 1.41649 z m 5.05782,4.79924 c -0.005,-0.033 -0.0187,-2.05768 -0.0295,-4.49929 l -0.0195,-4.43931 0.83495,-0.0725 c 0.8119,-0.0705 0.8938,0.007 2.96897,2.81074 1.17373,1.58575 2.18957,2.88714 2.25744,2.89199 0.0678,0.005 0.12185,-1.25999 0.11998,-2.81075 l -0.004,-2.81955 0.89986,-0.0745 0.89986,-0.0745 v 4.58826 4.58825 l -0.88277,-0.0745 c -0.82213,-0.0694 -1.03642,-0.27815 -3.11951,-3.03939 l -2.23675,-2.96492 v 3.02491 3.0249 h -0.83987 c -0.46192,0 -0.84435,-0.027 -0.84983,-0.0599 z m 10.08255,-0.0341 c -0.004,-0.0803 -0.009,-2.11657 -0.0122,-4.52519 l -0.006,-4.37932 2.23189,-0.0746 c 1.22754,-0.0411 2.62221,0.0399 3.09926,0.17987 3.60603,1.05826 4.22932,6.20473 0.99447,8.21133 -0.77451,0.48043 -1.28351,0.57182 -3.60156,0.64669 -1.48477,0.048 -2.70222,0.0215 -2.70544,-0.0587 z m 5.04241,-1.94423 c 1.00775,-0.52112 1.44243,-1.28082 1.44243,-2.52097 0,-1.91067 -1.16673,-2.87955 -3.46755,-2.87955 h -1.33171 v 2.87955 2.87955 h 1.33171 c 0.73244,0 1.64374,-0.16136 2.02512,-0.35858 z m 7.92142,-2.50649 v -4.57377 l 0.89986,0.0126 c 0.8708,0.0122 0.97153,0.11023 3.11951,3.03717 l 2.21966,3.0246 v -3.05165 -3.05167 l 0.85297,0.0745 0.85298,0.0745 v 4.43931 4.43931 l -0.81862,0.0725 c -0.79134,0.07 -0.88967,-0.0236 -2.95265,-2.81075 -1.17371,-1.58575 -2.20798,-2.88714 -2.29836,-2.89198 -0.0903,-0.005 -0.16234,1.25998 -0.15991,2.81074 l 0.005,2.81956 -0.85993,0.0745 -0.85993,0.0745 z m 9.06551,4.41176 c -0.0732,-0.0732 0.1591,-0.74807 0.51616,-1.49976 0.35707,-0.7517 1.23581,-2.74097 1.95276,-4.42061 l 1.30357,-3.05388 0.96914,-0.005 0.96914,-0.005 1.93577,4.43395 c 1.06467,2.43868 1.87936,4.49036 1.81042,4.5593 -0.0689,0.0689 -0.522,0.12534 -1.0068,0.12534 -0.81557,0 -0.90511,-0.0717 -1.19822,-0.95985 l -0.31678,-0.95986 -2.18124,0.003 -2.18125,0.003 -0.40211,0.95741 c -0.35726,0.85059 -0.49334,0.95741 -1.21982,0.95741 -0.44972,0 -0.87756,-0.0599 -0.95074,-0.13305 z m 5.93451,-3.88633 c -0.0929,-0.23096 -0.39434,-0.99969 -0.6698,-1.70826 l -0.50084,-1.28835 -0.53288,1.20746 c -1.01299,2.29532 -1.03294,2.20909 0.51085,2.20909 1.20119,0 1.34172,-0.0495 1.19267,-0.41994 z m 4.67691,-0.53991 v -4.55929 l 1.01984,9e-4 c 1.01984,9.1e-4 1.01984,9.1e-4 2.42785,2.78237 1.63188,3.2235 1.36464,3.27266 3.26063,-0.5997 1.06921,-2.18374 1.06921,-2.18374 2.09967,-2.18374 h 1.03047 v 4.5593 4.55928 h -0.83986 -0.83987 l -0.008,-3.05952 -0.008,-3.05952 -1.27153,2.5196 c -1.15532,2.28931 -1.33245,2.51962 -1.93787,2.51962 -0.60179,0 -0.78582,-0.23242 -1.90004,-2.39964 l -1.23372,-2.39962 -0.0674,2.93954 -0.0674,2.93954 h -0.83249 -0.83248 z m 11.99813,-1.8e-4 v -4.57266 l 3.29948,0.0668 3.29949,0.0667 v 0.71988 c 0,0.71989 0,0.71989 -2.33964,0.78857 l -2.33963,0.0686 v 0.94182 0.94182 l 2.09967,0.0693 2.09968,0.0694 v 0.81553 0.81554 l -2.09968,-0.0505 -2.09967,-0.0505 v 1.08628 1.08627 l 2.44807,0.0684 c 2.44808,0.0684 2.44808,0.0684 2.4479,0.78827 l -1.8e-4,0.71989 -3.40775,0.0666 -3.40774,0.0666 z m -60.23062,-9.04263 c 0,-1.05536 -0.89929,-2.54278 -2.04527,-3.38287 -1.46527,-1.07413 -1.418,-1.5422 0.40039,-3.96594 0.81105,-1.08103 1.64156,-2.1005 1.84558,-2.26548 0.53501,-0.43259 1.5131,-0.3696 2.71265,0.17471 2.74329,1.2448 6.05341,0.0546 7.22704,-2.59851 0.37843,-0.85551 0.43217,-1.33932 0.29758,-2.67942 -0.15477,-1.54117 -0.13184,-1.65595 0.39802,-1.99224 0.30923,-0.19628 1.7313,-0.68547 3.16015,-1.0871 3.13681,-0.88172 3.55471,-0.79742 4.26532,0.86049 0.95418,2.22616 2.29823,3.04195 4.78067,2.90168 1.95661,-0.11056 3.18434,-0.82775 4.46248,-2.60682 0.48403,-0.67375 1.11673,-1.2591 1.45184,-1.3432 0.86396,-0.21684 5.825,1.75813 6.07511,2.41848 0.11795,0.31142 0.0204,0.93436 -0.26501,1.6926 -0.24841,0.65989 -0.4517,1.33358 -0.45177,1.49709 -7e-5,0.1635 0.89073,0.74455 1.97957,1.29122 2.25576,1.13256 3.50374,1.94079 5.63807,3.65141 1.68267,1.34864 1.84342,1.78159 0.25788,0.69458 -6.26692,-4.29643 -15.66961,-5.37364 -23.38231,-2.67876 -4.52607,1.58144 -8.67664,4.56429 -11.27456,8.10257 l -1.41437,1.92632 -3.05953,0.0167 c -3.05953,0.0167 -3.05953,0.0167 -3.05953,-0.62747 z m 38.9708,-0.98571 c -2.92824,-2.76797 -6.92695,-4.56154 -11.37509,-5.10215 -4.53779,-0.55149 -9.56778,0.56596 -13.37315,2.97094 -2.2104,1.39697 -1.20973,0.3119 1.37502,-1.49098 3.86407,-2.69523 7.66119,-3.8553 12.64233,-3.86239 5.07994,-0.007 9.03387,1.20329 12.91473,3.95394 1.47471,1.04525 4.91818,4.49084 4.91818,4.92122 0,0.14544 -1.05853,0.23529 -2.69958,0.22917 l -2.69957,-0.0101 z"
       id="path244"
       clip-path="url(#clipPath129)"
       transform="matrix(-0.05598753,-0.89251858,0.89251858,-0.05598753,449.0606,-0.91576582)" /><path
       style="fill:url(#linearGradient263);fill-opacity:1;stroke:none;stroke-width:0.264583"
       d="m 308.40897,-275.67127 c 10.52543,7.55618 17.70333,4.21356 31.34365,5.35136 -13.30179,-6.54889 -18.69843,-2.13471 -31.34365,-5.35136 z"
       id="path245"
       sodipodi:nodetypes="ccc" /><path
       style="fill:url(#linearGradient262);fill-opacity:1;stroke:none;stroke-width:0.264583"
       d="m 314.27758,-262.77209 c -19.19293,1.34896 -18.78322,4.63157 -25.07365,6.94822 4.53525,0.18638 5.56321,4.84863 13.78449,1.48657 -4.3582,6.22657 -2.63823,7.72996 -3.10827,13.78448 3.68697,-8.61852 10.66731,-0.81038 26.08241,-18.10903 l -2.97312,-7.43281 z"
       id="path246"
       sodipodi:nodetypes="ccccccc" /><path
       id="path247"
       style="fill:url(#linearGradient261);fill-opacity:1;stroke:none;stroke-width:0.264583"
       d="m 332.51779,-272.14205 c -18.85537,0.30266 -27.99706,9.51993 -42.16693,13.43019 10.21254,-0.87011 20.0885,-6.39275 32.10811,-2.2934 -2.34868,4.75018 -3.89877,9.181 -9.30692,12.91135 l 0.70848,4.68912 c 13.55342,-6.18368 18.70893,-23.45327 33.44396,-27.34768 -5.56703,-1.05439 -10.43546,-1.45943 -14.7867,-1.38958 z m -4.12585,3.00653 c -0.97708,2.06398 -3.32949,2.13446 -5.16609,2.15956 0.19333,-1.93372 2.13928,-2.14176 5.16609,-2.15956 z" /><path
       style="fill:url(#linearGradient260);fill-opacity:1;stroke:none;stroke-width:0.264583"
       d="m 322.18119,-270.83729 c -14.98275,3.13227 -36.02328,19.24195 -51.61391,14.85135 17.25574,-1.16128 31.13336,-21.16708 51.61391,-14.85135 z"
       id="path248"
       sodipodi:nodetypes="ccc" /><path
       style="fill:url(#linearGradient259);fill-opacity:1;stroke:none;stroke-width:0.264583"
       inkscape:path-effect="#path-effect256"
       inkscape:original-d="m 274.66747,-129.18488 c -0.14119,0.21247 -0.28853,0.42078 -0.44958,0.61908 -1.2034,1.48181 -2.85093,2.51171 -4.67,2.91972 -0.40726,0.0912 -0.87648,0.1598 -1.30587,0.19017 -0.11884,0.008 -0.16043,0.009 -0.23254,0.0134 0.038,0.008 0.0792,0.0173 0.21136,0.0238 2.05894,0.10178 4.15128,1.08877 5.5826,2.6324 1.20669,1.30135 1.94296,2.86192 2.19005,4.64364 0.0332,0.23962 0.0482,0.67072 0.0517,1.09037 h 0.0279 l -0.0155,0.42272 c -0.004,0.10591 -0.0175,0.21146 -0.0258,0.31729 -2.8e-4,0.003 2.8e-4,0.0104 0,0.0134 -5.4e-4,0.006 -0.002,0.0113 -0.002,0.017 -0.13628,1.64449 -0.79978,3.26792 -1.89807,4.59507 -0.25564,0.30892 -0.876,0.91785 -1.19476,1.17254 -1.21439,0.97041 -2.64997,1.57574 -4.21421,1.77715 -0.30029,0.0387 -1.33849,0.069 -1.58957,0.0465 h -5.2e-4 c -1.13219,-0.10161 -2.09707,-0.35436 -3.01583,-0.79014 -0.66778,-0.31673 -1.27972,-0.72984 -1.83607,-1.20612 -0.0502,-0.0424 -0.10017,-0.0846 -0.14934,-0.12816 -0.12612,-0.11315 -0.24786,-0.22995 -0.36691,-0.35037 -0.10022,-0.10015 -0.19748,-0.20237 -0.29248,-0.30747 -0.0754,-0.0842 -0.14924,-0.16915 -0.22118,-0.25632 -0.12274,-0.14748 -0.23881,-0.29947 -0.35088,-0.45527 -0.0472,-0.0658 -0.0942,-0.13131 -0.13953,-0.19843 -0.0466,-0.0691 -0.0992,-0.13406 -0.14366,-0.20464 -0.25305,-0.40167 -0.46418,-0.81474 -0.64285,-1.2392 -0.38159,-0.90651 -0.59977,-1.86987 -0.65423,-2.91921 -0.003,-0.0624 -0.0208,0.0674 -0.0388,0.28888 -0.0811,0.99749 -0.32004,1.9295 -0.71261,2.80344 5.47366,7.1142 14.93789,12.49003 26.58235,15.609385 -2.9973,-9.654785 -7.36016,-20.643025 -10.48308,-31.140735 z"
       d="m 274.20827,-126.27727 c -0.0319,-0.10157 -0.0636,-0.20309 -0.0952,-0.30458 -0.49368,0.43832 -1.0324,0.81636 -1.59941,1.14435 0.83504,0.47894 1.6005,1.07359 2.24219,1.76562 0.15925,0.17175 0.31,0.3496 0.45508,0.5293 -0.34361,-1.04765 -0.6769,-2.09179 -1.00267,-3.13469 z m 3.15501,9.50774 c 2.00734,5.77521 4.07253,11.46657 5.80469,16.806639 -6.15745,-1.859629 -11.57412,-4.366519 -15.98438,-7.425779 0.49451,0.0242 1.30106,-0.007 1.70508,-0.0586 1.7987,-0.23159 3.45481,-0.9284 4.85938,-2.05078 0.39373,-0.31459 1.06863,-0.97931 1.38476,-1.36133 1.26072,-1.52342 2.03296,-3.40242 2.19141,-5.31445 l 0.002,-0.0176 c -2e-4,-6e-5 7.9e-4,-0.003 0.002,-0.0156 0,0 0,-0.002 0,-0.002 0,0 0,-0.002 0,-0.002 l 0.002,-0.0156 v -0.0117 c 0.007,-0.0868 0.0203,-0.20811 0.0254,-0.3418 z"
       id="path249"
       transform="translate(71.084703,-102.43766)"
       clip-path="url(#clipPath275)" /><path
       style="fill:url(#linearGradient258);fill-opacity:1;stroke:none;stroke-width:0.264583"
       inkscape:path-effect="#path-effect258"
       inkscape:original-d="m 273.49235,-161.87849 c -8.6763,7.62167 -14.25709,14.85983 -17.27905,21.56664 0.22148,0.18227 0.43909,0.37455 0.65371,0.59015 0.84573,0.84957 1.47513,1.82935 1.89084,2.93367 0.0136,0.0356 0.0246,0.0722 0.0377,0.108 0.0493,0.13634 0.0973,0.27331 0.14005,0.41341 0.0252,0.0821 0.0465,0.16559 0.0692,0.24857 0.0222,0.0811 0.0476,0.16055 0.0677,0.24288 0.004,0.0179 0.006,0.0365 0.0103,0.0543 0.0969,0.41257 0.16564,0.83467 0.20103,1.26607 0.013,0.15161 0.0201,0.3089 0.0227,0.41444 10e-4,0.0148 0.002,0.0206 0.003,0.0357 0.005,0.0624 0.0102,0.003 0.0119,-0.12971 0.008,-0.51491 0.10142,-1.16064 0.24908,-1.74873 0.54026,-2.15264 1.92661,-4.00763 3.84886,-5.15059 1.01964,-0.60626 2.13841,-0.97784 3.38791,-1.12499 0.17176,-0.0202 0.52873,-0.0293 0.88005,-0.0305 v -0.002 l 0.0243,0.001 c 0.38386,-7.4e-4 0.7622,0.009 0.92501,0.031 0.66545,0.0901 1.10084,0.18733 1.67794,0.37517 0.49166,0.16004 0.9625,0.36786 1.4118,0.6165 -1.42563,-8.05395 -1.32239,-15.29562 1.76578,-20.71088 z"
       d="m 270.29492,-157.14062 c -0.98898,4.18167 -0.9211,8.9282 -0.20508,13.93945 -0.39829,-0.10419 -0.78645,-0.18132 -1.27929,-0.24805 -0.26389,-0.0357 -0.67368,-0.0413 -1.05469,-0.041 l -1.36914,-0.11329 v 0.19141 c -1.31673,0.18759 -2.51854,0.60035 -3.63086,1.26172 -1.44404,0.85862 -2.62455,2.06796 -3.44727,3.49414 -0.41008,-0.71298 -0.91175,-1.37012 -1.50976,-1.97266 2.48049,-5.16172 6.54542,-10.68794 12.49609,-16.51171 z"
       id="path250"
       transform="translate(69.644523,-105.82582)" /><path
       style="fill:#ffd42a;fill-opacity:1;stroke:none;stroke-width:1"
       d="m 321.71061,-213.52666 c -0.93501,-0.0549 -1.90895,-0.31337 -2.76942,-0.73495 -2.28883,-1.12133 -3.82117,-3.33429 -4.07221,-5.88093 -0.031,-0.31439 -0.0309,-1.07999 2e-4,-1.39023 0.2023,-2.01962 1.15447,-3.77089 2.74798,-5.05418 0.4913,-0.39564 1.33485,-0.87487 1.9419,-1.10321 0.62875,-0.23651 1.56757,-0.44348 2.05891,-0.4539 0.0569,-8.7e-4 0.12847,-0.0104 0.15885,-0.0198 0.0415,-0.0134 0.0221,-0.0183 -0.0779,-0.0199 -0.19631,-0.003 -0.64461,-0.0611 -0.96266,-0.12416 -1.43273,-0.28435 -2.72646,-0.97537 -3.75879,-2.00772 -1.19828,-1.19828 -1.93123,-2.7501 -2.11048,-4.46832 -0.0398,-0.3816 -0.0344,-1.20966 0.0104,-1.56677 0.2065,-1.64964 0.92582,-3.13579 2.07776,-4.29276 1.21157,-1.21689 2.7101,-1.93398 4.45756,-2.13309 0.39019,-0.0445 1.25579,-0.0324 1.67126,0.0236 0.82023,0.11022 1.52539,0.31931 2.23461,0.66262 0.78986,0.38234 1.4143,0.82702 2.03042,1.44595 0.95864,0.96299 1.60277,2.11557 1.92883,3.45137 0.10518,0.43082 0.15358,0.79185 0.20766,1.54849 0.004,0.0546 0.009,0.003 0.0104,-0.11349 0.007,-0.45031 0.0884,-1.01473 0.21756,-1.52905 0.47248,-1.88259 1.68495,-3.50523 3.36605,-4.50481 0.89173,-0.53021 1.87039,-0.85514 2.96314,-0.98383 0.31843,-0.0375 1.32352,-0.0377 1.59987,-2.8e-4 0.58197,0.0788 0.96276,0.1639 1.46746,0.32818 1.04313,0.33955 1.98479,0.91171 2.78857,1.69441 0.8863,0.86301 1.47116,1.79127 1.85636,2.94632 0.50356,1.50993 0.50342,3.11977 -3.9e-4,4.63632 -0.48781,1.46839 -1.44913,2.75816 -2.73683,3.67193 -0.63561,0.45103 -1.44313,0.83476 -2.226,1.05781 -0.45683,0.13011 -1.18336,0.25043 -1.55727,0.2578 -0.28503,0.006 -0.26004,0.0328 0.0441,0.0478 1.80064,0.089 3.63084,0.95191 4.8826,2.3019 1.05531,1.13811 1.69897,2.50317 1.91507,4.06137 0.049,0.35314 0.0675,1.24811 0.0335,1.61224 -0.12951,1.38392 -0.63926,2.68503 -1.4822,3.78291 -1.02091,1.32972 -2.49288,2.28457 -4.11075,2.66664 -0.61657,0.14553 -0.99314,0.18699 -1.70165,0.18699 -0.7091,0 -1.085,-0.0414 -1.70333,-0.1874 -1.83299,-0.43288 -3.47901,-1.60889 -4.48342,-3.20319 -0.69395,-1.10149 -1.06444,-2.2893 -1.13437,-3.63671 -0.003,-0.0546 -0.0181,0.059 -0.0339,0.25272 -0.089,1.09488 -0.39148,2.10086 -0.91009,3.02737 -0.93497,1.67034 -2.48093,2.90555 -4.31771,3.4498 -0.77981,0.23107 -1.72339,0.34114 -2.52221,0.29424 z m 15.10859,-12.80936 c -0.007,-3.02411 -0.0149,-6.32093 -0.0149,-7.32627 v -1.82792 h -7.32627 -7.32628 v 7.31157 c 0,4.02136 0.006,7.31818 0.0149,7.32628 0.007,0.007 3.31152,0.0149 7.34097,0.0149 h 7.32625 z m -7.33737,5.28873 c -0.002,-0.0728 -0.0104,-0.21431 -0.0181,-0.31445 l -0.0149,-0.18205 h -3.19642 -3.19639 l 0.34734,-0.69512 0.34733,-0.69511 h 2.7089 c 1.64444,0 2.70891,-0.007 2.70891,-0.0203 0,-0.0322 -0.19881,-0.596 -0.25542,-0.72436 l -0.051,-0.11586 h -2.32929 c -1.28111,0 -2.32929,-0.006 -2.32929,-0.0149 0,-0.007 0.15615,-0.32076 0.34697,-0.69513 l 0.34697,-0.68065 h 1.57286 c 0.86509,0 1.57288,-0.006 1.57288,-0.0134 0,-0.033 -0.35841,-0.45714 -0.57078,-0.67557 l -0.23063,-0.23722 h -0.93435 c -0.5139,0 -0.93436,-0.004 -0.93436,-0.0104 0,-0.006 0.11422,-0.23196 0.25376,-0.50401 0.13959,-0.27206 0.25378,-0.50449 0.25378,-0.51657 0,-0.0277 -0.57683,-0.32496 -0.88268,-0.45474 -0.66376,-0.28167 -1.4779,-0.48158 -2.21523,-0.54399 -0.2877,-0.0243 -0.35972,-0.0457 -0.15448,-0.0457 0.34531,0 1.06929,-0.12624 1.58613,-0.27653 1.37634,-0.40026 2.61942,-1.20987 3.53961,-2.30531 0.209,-0.24881 0.53196,-0.68409 0.53196,-0.71699 0,-0.009 -0.059,-0.0797 -0.13099,-0.15671 -0.16905,-0.1807 -0.29005,-0.38709 -0.38045,-0.64894 -0.0697,-0.20177 -0.0724,-0.22246 -0.0724,-0.55166 0,-0.32922 0.002,-0.34991 0.0724,-0.5517 0.10428,-0.30201 0.22095,-0.48654 0.45406,-0.71799 0.15948,-0.15836 0.24191,-0.22055 0.40029,-0.30205 0.22077,-0.11364 0.43913,-0.18171 0.6576,-0.20511 l 0.14403,-0.0154 0.0149,-0.13544 c 0.007,-0.0744 0.0212,-0.24971 0.0295,-0.38929 l 0.0151,-0.25376 0.0153,0.35486 c 0.009,0.19518 0.0211,0.36979 0.0282,0.38801 0.009,0.0221 0.0711,0.0422 0.18736,0.0599 0.82042,0.12565 1.41962,0.74031 1.52447,1.56391 0.0637,0.49961 -0.10784,1.02378 -0.46558,1.42339 l -0.11364,0.12699 0.12639,0.18202 c 1.26316,1.81846 3.27659,2.96275 5.50298,3.12749 0.17526,0.0134 0.32338,0.0283 0.32917,0.0339 0.006,0.006 -0.0681,0.0104 -0.16419,0.0104 -0.58074,9e-5 -1.50304,0.18791 -2.22086,0.45226 -0.21777,0.0803 -0.96869,0.42574 -1.00576,0.4628 -0.003,0.003 0.11512,0.24882 0.26439,0.54446 0.14922,0.29564 0.27475,0.54497 0.27896,0.55407 0.004,0.009 -0.45365,0.0165 -1.01743,0.0165 h -1.02509 l -0.22906,0.23777 c -0.21681,0.22504 -0.57113,0.6436 -0.57113,0.67468 0,0.007 0.74726,0.0149 1.66057,0.0149 l 1.66053,3.2e-4 0.34758,0.68081 c 0.19114,0.37446 0.34755,0.68711 0.34755,0.6948 0,0.007 -1.09021,0.0134 -2.42267,0.0134 h -2.42265 l -0.085,0.21514 c -0.0469,0.11838 -0.11779,0.31199 -0.15774,0.43033 l -0.0727,0.21514 h 2.80674 2.80674 l 0.34735,0.69511 0.34734,0.69512 h -3.28794 c -2.61431,0 -3.28846,0.006 -3.29047,0.0276 -8.7e-4,0.0151 -0.0104,0.15667 -0.0184,0.31445 -0.009,0.15778 -0.0175,0.2273 -0.0198,0.15448 z m -0.71344,-11.28575 c 0.14642,-0.31216 0.26536,-0.6128 0.36611,-0.92544 0.0895,-0.27753 0.19391,-0.68972 0.17867,-0.70497 -0.0177,-0.0177 -0.21882,0.0422 -0.33146,0.0986 -0.17965,0.0899 -0.33331,0.22237 -0.43989,0.37911 -0.22079,0.32465 -0.26436,0.69685 -0.12447,1.06289 0.0469,0.12253 0.18495,0.33101 0.21929,0.33101 0.0104,0 0.0694,-0.1086 0.13173,-0.24119 z m 1.72367,-0.0134 c 0.0837,-0.17109 0.11037,-0.2907 0.11111,-0.49677 8.7e-4,-0.39523 -0.18431,-0.73745 -0.51646,-0.95231 -0.12223,-0.0791 -0.40347,-0.18593 -0.42713,-0.16228 -0.0151,0.0151 0.0939,0.44002 0.18667,0.72791 0.0982,0.30499 0.21247,0.5932 0.35882,0.90546 l 0.11348,0.24208 0.0543,-0.0656 c 0.0298,-0.036 0.0837,-0.12535 0.11927,-0.19855 z"
       id="path251" /><path
       style="fill:#b08b53;fill-opacity:1;stroke:none;stroke-width:1"
       d="m 188.19029,-289.74676 c -0.93501,-0.0549 -1.90895,-0.31337 -2.76942,-0.73495 -2.28883,-1.12133 -3.82117,-3.33429 -4.07221,-5.88093 -0.031,-0.31439 -0.0309,-1.07999 2e-4,-1.39023 0.2023,-2.01962 1.15447,-3.77089 2.74798,-5.05418 0.4913,-0.39564 1.33485,-0.87487 1.9419,-1.10321 0.62875,-0.23651 1.56757,-0.44348 2.05891,-0.4539 0.0569,-8.7e-4 0.12847,-0.0104 0.15885,-0.0198 0.0415,-0.0134 0.0221,-0.0183 -0.0779,-0.0199 -0.19631,-0.003 -0.64461,-0.0611 -0.96266,-0.12416 -1.43273,-0.28435 -2.72646,-0.97537 -3.75879,-2.00772 -1.19828,-1.19828 -1.93123,-2.7501 -2.11048,-4.46832 -0.0398,-0.3816 -0.0344,-1.20966 0.0104,-1.56677 0.2065,-1.64964 0.92582,-3.13579 2.07776,-4.29276 1.21157,-1.21689 2.7101,-1.93398 4.45756,-2.13309 0.39019,-0.0445 1.25579,-0.0324 1.67126,0.0236 0.82023,0.11022 1.52539,0.31931 2.23461,0.66262 0.78986,0.38234 1.4143,0.82702 2.03042,1.44595 0.95864,0.96299 1.60277,2.11557 1.92883,3.45137 0.10518,0.43082 0.15358,0.79185 0.20766,1.54849 0.004,0.0546 0.009,0.003 0.0104,-0.11349 0.007,-0.45031 0.0884,-1.01473 0.21756,-1.52905 0.47248,-1.88259 1.68495,-3.50523 3.36605,-4.50481 0.89173,-0.53021 1.87039,-0.85514 2.96314,-0.98383 0.31843,-0.0375 1.32352,-0.0377 1.59987,-2.8e-4 0.58197,0.0788 0.96276,0.1639 1.46746,0.32818 1.04313,0.33955 1.98479,0.91171 2.78857,1.69441 0.8863,0.86301 1.47116,1.79127 1.85636,2.94632 0.50356,1.50993 0.50342,3.11977 -3.9e-4,4.63632 -0.48781,1.46839 -1.44913,2.75816 -2.73683,3.67193 -0.63561,0.45103 -1.44313,0.83476 -2.226,1.05781 -0.45683,0.13011 -1.18336,0.25043 -1.55727,0.2578 -0.28503,0.006 -0.26004,0.0328 0.0441,0.0478 1.80064,0.089 3.63084,0.95191 4.8826,2.3019 1.05531,1.13811 1.69897,2.50317 1.91507,4.06137 0.049,0.35314 0.0675,1.24811 0.0335,1.61224 -0.12951,1.38392 -0.63926,2.68503 -1.4822,3.78291 -1.02091,1.32972 -2.49288,2.28457 -4.11075,2.66664 -0.61657,0.14553 -0.99314,0.18699 -1.70165,0.18699 -0.7091,0 -1.085,-0.0414 -1.70333,-0.1874 -1.83299,-0.43288 -3.47901,-1.60889 -4.48342,-3.20319 -0.69395,-1.10149 -1.06444,-2.2893 -1.13437,-3.63671 -0.003,-0.0546 -0.0181,0.059 -0.0339,0.25272 -0.089,1.09488 -0.39148,2.10086 -0.91009,3.02737 -0.93497,1.67034 -2.48093,2.90555 -4.31771,3.4498 -0.77981,0.23107 -1.72339,0.34114 -2.52221,0.29424 z m 15.10859,-12.80936 c -0.007,-3.02411 -0.0149,-6.32093 -0.0149,-7.32627 v -1.82792 h -7.32627 -7.32628 v 7.31157 c 0,4.02136 0.006,7.31818 0.0149,7.32628 0.007,0.007 3.31152,0.0149 7.34097,0.0149 h 7.32625 z m -7.33737,5.28873 c -0.002,-0.0728 -0.0104,-0.21431 -0.0181,-0.31445 l -0.0149,-0.18205 h -3.19642 -3.19639 l 0.34734,-0.69512 0.34733,-0.69511 h 2.7089 c 1.64444,0 2.70891,-0.007 2.70891,-0.0203 0,-0.0322 -0.19881,-0.596 -0.25542,-0.72436 l -0.051,-0.11586 h -2.32929 c -1.28111,0 -2.32929,-0.006 -2.32929,-0.0149 0,-0.007 0.15615,-0.32076 0.34697,-0.69513 l 0.34697,-0.68065 h 1.57286 c 0.86509,0 1.57288,-0.006 1.57288,-0.0134 0,-0.033 -0.35841,-0.45714 -0.57078,-0.67557 l -0.23063,-0.23722 h -0.93435 c -0.5139,0 -0.93436,-0.004 -0.93436,-0.0104 0,-0.006 0.11422,-0.23196 0.25376,-0.50401 0.13959,-0.27206 0.25378,-0.50449 0.25378,-0.51657 0,-0.0277 -0.57683,-0.32496 -0.88268,-0.45474 -0.66376,-0.28167 -1.4779,-0.48158 -2.21523,-0.54399 -0.2877,-0.0243 -0.35972,-0.0457 -0.15448,-0.0457 0.34531,0 1.06929,-0.12624 1.58613,-0.27653 1.37634,-0.40026 2.61942,-1.20987 3.53961,-2.30531 0.209,-0.24881 0.53196,-0.68409 0.53196,-0.71699 0,-0.009 -0.059,-0.0797 -0.13099,-0.15671 -0.16905,-0.1807 -0.29005,-0.38709 -0.38045,-0.64894 -0.0697,-0.20177 -0.0724,-0.22246 -0.0724,-0.55166 0,-0.32922 0.002,-0.34991 0.0724,-0.5517 0.10428,-0.30201 0.22095,-0.48654 0.45406,-0.71799 0.15948,-0.15836 0.24191,-0.22055 0.40029,-0.30205 0.22077,-0.11364 0.43913,-0.18171 0.6576,-0.20511 l 0.14403,-0.0154 0.0149,-0.13544 c 0.007,-0.0744 0.0212,-0.24971 0.0295,-0.38929 l 0.0151,-0.25376 0.0153,0.35486 c 0.009,0.19518 0.0211,0.36979 0.0282,0.38801 0.009,0.0221 0.0711,0.0422 0.18736,0.0599 0.82042,0.12565 1.41962,0.74031 1.52447,1.56391 0.0637,0.49961 -0.10784,1.02378 -0.46558,1.42339 l -0.11364,0.12699 0.12639,0.18202 c 1.26316,1.81846 3.27659,2.96275 5.50298,3.12749 0.17526,0.0134 0.32338,0.0283 0.32917,0.0339 0.006,0.006 -0.0681,0.0104 -0.16419,0.0104 -0.58074,9e-5 -1.50304,0.18791 -2.22086,0.45226 -0.21777,0.0803 -0.96869,0.42574 -1.00576,0.4628 -0.003,0.003 0.11512,0.24882 0.26439,0.54446 0.14922,0.29564 0.27475,0.54497 0.27896,0.55407 0.004,0.009 -0.45365,0.0165 -1.01743,0.0165 h -1.02509 l -0.22906,0.23777 c -0.21681,0.22504 -0.57113,0.6436 -0.57113,0.67468 0,0.007 0.74726,0.0149 1.66057,0.0149 l 1.66053,3.2e-4 0.34758,0.68081 c 0.19114,0.37446 0.34755,0.68711 0.34755,0.6948 0,0.007 -1.09021,0.0134 -2.42267,0.0134 h -2.42265 l -0.085,0.21514 c -0.0469,0.11838 -0.11779,0.31199 -0.15774,0.43033 l -0.0727,0.21514 h 2.80674 2.80674 l 0.34735,0.69511 0.34734,0.69512 h -3.28794 c -2.61431,0 -3.28846,0.006 -3.29047,0.0276 -8.7e-4,0.0151 -0.0104,0.15667 -0.0184,0.31445 -0.009,0.15778 -0.0175,0.2273 -0.0198,0.15448 z m -0.71344,-11.28575 c 0.14642,-0.31216 0.26536,-0.6128 0.36611,-0.92544 0.0895,-0.27753 0.19391,-0.68972 0.17867,-0.70497 -0.0177,-0.0177 -0.21882,0.0422 -0.33146,0.0986 -0.17965,0.0899 -0.33331,0.22237 -0.43989,0.37911 -0.22079,0.32465 -0.26436,0.69685 -0.12447,1.06289 0.0469,0.12253 0.18495,0.33101 0.21929,0.33101 0.0104,0 0.0694,-0.1086 0.13173,-0.24119 z m 1.72367,-0.0134 c 0.0837,-0.17109 0.11037,-0.2907 0.11111,-0.49677 8.7e-4,-0.39523 -0.18431,-0.73745 -0.51646,-0.95231 -0.12223,-0.0791 -0.40347,-0.18593 -0.42713,-0.16228 -0.0151,0.0151 0.0939,0.44002 0.18667,0.72791 0.0982,0.30499 0.21247,0.5932 0.35882,0.90546 l 0.11348,0.24208 0.0543,-0.0656 c 0.0298,-0.036 0.0837,-0.12535 0.11927,-0.19855 z"
       id="path280"
       clip-path="url(#clipPath280)"
       transform="translate(133.56476,76.126478)" /><path
       style="fill:#55001d;fill-opacity:1;stroke:none;stroke-width:1"
       d="m 321.75147,-213.5068 c -0.75351,-0.0614 -1.22507,-0.15016 -1.82053,-0.34284 -1.17254,-0.3794 -2.15096,-0.98816 -3.01218,-1.8741 -0.51803,-0.5329 -0.93994,-1.11869 -1.26151,-1.75157 -0.43351,-0.85314 -0.6811,-1.69347 -0.77941,-2.64528 -0.0315,-0.3048 -0.032,-1.07843 -8.7e-4,-1.39385 0.14746,-1.49822 0.73199,-2.8827 1.70453,-4.03743 0.22798,-0.27068 0.75322,-0.78207 1.02156,-0.99466 1.22628,-0.97143 2.68052,-1.51544 4.25145,-1.59045 l 0.30505,-0.0149 0.006,3.68308 c 0.003,2.0257 0.003,5.32405 6e-5,7.32966 l -0.006,3.6466 -0.1599,-0.003 c -0.088,-0.002 -0.19966,-0.006 -0.2482,-0.0104 z m 14.57532,8.7e-4 c -0.99015,-0.0889 -1.83378,-0.30997 -2.6373,-0.69109 -1.86271,-0.88351 -3.29437,-2.55206 -3.88269,-4.52521 -0.17337,-0.58147 -0.27019,-1.15474 -0.29162,-1.72675 l -0.0134,-0.3696 h 7.32195 7.32197 l -0.0134,0.3696 c -0.0565,1.54114 -0.65641,3.08043 -1.68466,4.32294 -0.22357,0.27016 -0.76606,0.80251 -1.04483,1.02525 -1.06205,0.84869 -2.31718,1.37803 -3.6852,1.55418 -0.26262,0.0338 -1.17064,0.0603 -1.39023,0.0407 z m -6.84093,-7.59033 c -7e-5,-0.0353 -0.006,-0.14627 -0.0149,-0.24643 -0.0119,-0.15537 -0.009,-0.18206 0.0199,-0.18206 0.0292,0 0.0324,0.0332 0.0224,0.23722 -0.0104,0.22137 -0.0277,0.33669 -0.0279,0.19127 z m -0.33798,-1.95613 c -0.0304,-0.10473 -0.21296,-0.58652 -0.27608,-0.7287 -0.004,-0.009 0.2757,-0.0164 0.62166,-0.0164 h 0.62904 l -0.0786,0.19309 c -0.0432,0.10621 -0.116,0.30233 -0.16185,0.43583 l -0.0832,0.24272 -0.30534,0.006 -0.30536,0.006 z m -1.23477,-2.31754 c -0.0894,-0.1123 -0.26911,-0.32081 -0.39937,-0.46341 l -0.23682,-0.25928 h 2.22964 2.22963 l -0.0744,0.0716 c -0.13633,0.13114 -0.39719,0.42361 -0.57158,0.64066 l -0.17229,0.21442 h -1.42109 -1.42107 z m -2.3858,-1.9599 c -0.91794,-0.47433 -1.6448,-0.67876 -2.87107,-0.80743 l -0.15448,-0.0162 0.24273,-0.0172 c 1.0261,-0.0725 2.12127,-0.4054 3.02321,-0.91898 0.59041,-0.33619 1.04807,-0.68752 1.55711,-1.19532 0.39008,-0.38913 0.60766,-0.64382 0.8524,-0.99776 l 0.13263,-0.19185 0.11674,0.0877 c 0.15553,0.1169 0.39681,0.23075 0.60974,0.28777 0.23177,0.062 0.63615,0.0667 0.85793,0.0104 0.20099,-0.0515 0.49682,-0.18956 0.64324,-0.30012 0.0639,-0.0482 0.12121,-0.0877 0.12728,-0.0877 0.006,0 0.0531,0.062 0.10414,0.13796 1.18688,1.76003 3.21787,2.96644 5.30405,3.15058 0.15778,0.0134 0.34646,0.0332 0.41927,0.0427 l 0.13247,0.0174 -0.17655,0.003 c -0.24182,0.004 -0.71537,0.0607 -1.05295,0.12609 -0.66967,0.12996 -1.40188,0.38744 -1.97171,0.69326 l -0.20006,0.1074 -0.07,-0.14197 -0.0701,-0.14196 h -3.49756 -3.49757 l -0.0765,0.14893 c -0.0421,0.082 -0.0844,0.15971 -0.0941,0.17284 -0.0119,0.0158 -0.14315,-0.0411 -0.39025,-0.16876 z m 6.98189,-1.26732 c 0,-0.006 -0.15138,-0.31384 -0.33636,-0.68408 l -0.33636,-0.67313 -2.25101,3.9e-4 -2.25102,4e-4 -0.34505,0.68367 -0.34506,0.6837 h 2.93241 c 1.61285,0 2.93245,-0.006 2.93245,-0.0104 z m 4.31777,0.43758 c -0.007,-0.007 -0.0149,-3.30647 -0.0149,-7.32972 v -7.31498 l 0.32548,0.0134 c 1.85892,0.0777 3.62658,0.87194 4.92747,2.21371 1.12452,1.15984 1.79346,2.54992 2.02165,4.20105 0.0478,0.34613 0.055,1.35041 0.0119,1.69918 -0.1761,1.43271 -0.71565,2.73049 -1.57529,3.789 -1.05243,1.29592 -2.49329,2.19679 -4.08415,2.55362 -0.35617,0.0798 -0.76632,0.13958 -1.14184,0.16614 -0.37789,0.0267 -0.45109,0.0281 -0.47077,0.009 z m -7.58371,-3.55061 c -0.17809,-0.0386 -0.37848,-0.13648 -0.50344,-0.24608 l -0.0952,-0.0835 0.14211,-0.2979 c 0.22332,-0.46801 0.35629,-0.84596 0.51622,-1.46746 0.0398,-0.15447 0.0398,-0.15447 0.12698,-0.16159 0.0479,-0.004 0.11912,-8.8e-4 0.15807,0.006 0.0632,0.0119 0.0725,0.0236 0.0861,0.10651 0.0552,0.33672 0.30403,1.05558 0.53186,1.53715 l 0.11942,0.25241 -0.0814,0.0833 c -0.16066,0.16453 -0.52241,0.30728 -0.76906,0.30345 -0.0485,-7.5e-4 -0.15281,-0.0153 -0.2317,-0.0324 z m 0.21108,-3.04931 c 0.0473,-0.55048 0.0424,-0.53342 0.0599,-0.21144 0.009,0.15981 0.0218,0.30628 0.0292,0.32548 0.0104,0.0264 -7.3e-4,0.0349 -0.0443,0.0349 -0.0577,0 -0.0577,0 -0.0448,-0.14894 z m -14.61209,-1.00405 c 0.11245,-2.18771 1.08452,-4.09451 2.77702,-5.44766 1.06616,-0.85236 2.34598,-1.37284 3.8012,-1.54583 0.3293,-0.0392 1.219,-0.0325 1.57701,0.0119 2.02888,0.25084 3.79933,1.26602 5.0112,2.87341 0.84324,1.11851 1.33852,2.42428 1.45413,3.83368 0.0134,0.1554 0.0232,0.34656 0.0232,0.42479 v 0.14227 h -7.32938 -7.3294 z"
       id="path252" /><path
       style="fill:#361a93;fill-opacity:1;stroke:none;stroke-width:0.264583"
       d="m 371.25832,-190.0097 c -1.34917,10.78803 -7.48003,15.12996 -23.25567,21.51077 11.83151,-10.43059 19.53725,-13.66599 23.25567,-21.51077 z"
       id="path253"
       sodipodi:nodetypes="ccc" /><circle
       style="fill:none;stroke:none;stroke-width:0.1;stroke-dasharray:none"
       id="circle279"
       cx="-153.08768"
       cy="-369.84186"
       r="64.204636"
       transform="rotate(77.749907)" /><circle
       style="fill:none;stroke:#d99924;stroke-width:1.8;stroke-dasharray:none;stroke-opacity:1"
       id="circle280"
       cx="328.93881"
       cy="-227.54559"
       r="76.861198" /></g></svg>
